<svg xmlns="http://www.w3.org/2000/svg" width="100" height="100" viewBox="0 0 100 100"><defs><style>.a,.b,.c{fill:none;}.a{stroke:#c39052;}.a,.c{stroke-linecap:round;stroke-linejoin:round;}.b,.c{stroke:#81949c;}.b{stroke-miterlimit:10;}</style></defs><title>globe</title><path class="a" d="M70.157,87.957A43.3,43.3,0,0,1,54.165,91C29.859,91,10.157,70.986,10.157,46.3A44.724,44.724,0,0,1,37.291,5"/><line class="a" x1="36.157" y1="1" x2="39.157" y2="8"/><line class="a" x1="69.157" y1="85" x2="72.157" y2="92"/><line class="a" x1="65.157" y1="99.5" x2="38.157" y2="99.5"/><line class="a" x1="52.657" y1="91" x2="52.657" y2="99"/><path class="b" d="M54.065,9.821a36.063,36.063,0,0,1,22.162,7.567c-1.733,1.121-3.366,3.7-4.978,4.65-2.539,1.492-4.582,1.511-7.5,2.855l-.478.223c-4.065,1.917-5.877,3.484-4.78,8.732l.178.828c.467,2.252.755,4.386,2.983,5.918,4.716,3.24,5.585-.708,9.659-2.422,1.653-.7,5.564.417,7.791.571l.249.013L89.985,41.6a36.184,36.184,0,1,1-35.92-31.78Z"/><path class="b" d="M19.723,57.324l.06.016c2.972,7.367,22.177,3.236,22.177,3.5,0,9.539,7.884,4.68,13.718,9.557,3.41,2.85,5.011,7.234,7.261,9.021l.227.17A9.989,9.989,0,0,1,64.2,80.614a36.251,36.251,0,0,1-44.329-22.86Z"/><path class="b" d="M54.065,9.821A36.11,36.11,0,0,1,69.772,78.479c-.673-1.442-1.816-2.389-2.389-3.592l-.438-.933-.173-.38c-1.5-3.331,1.207,1.105.644-4.627l-.338-3.115c-.461-4.149-1.172-9.6-2.611-12.636l-.408-.882-.345-.78c-1.726-4,.164-1.085-5.77-.37-3.506.42-6.764-1.828-10.558-1.064-3.823.769-3.82,3.039-7.147,4.961-2.728,1.576-3.178-.647-7,.545-2.249.7-4.98,7.144-5.873,1.215-.684-4.532,1.888-5.675,5.948-5.675l.037-.392.049-.471c.345-3.156,1.413-10.783,1.936-12.658,1.795-6.427,3.472-2.412,6.252-7.041.658-1.1-9.238-1.255-10.824,1.718-.708,1.325,2.617,4.437,0,5.281-.533.172-5.354-3.791-5.948-4.385-.045-.046,7.7-6.108,8.283-6.537l.026-.019c.529-.361,9.145-2.17,2.085-6.16-1.392-.787-5.786,1.059-9.46,2.98A36.129,36.129,0,0,1,54.065,9.821Z"/><path class="c" d="M54.065,9.821a36.055,36.055,0,0,1,18.366,4.993h-.364c-8.189-2.2-6.412,1.04-9.069-1.13-.035,1.815,5.242,4.907,3.4,5.653-2.348.951-4.533-5.653-6.591-1.78-1.662,1.163-.4,7.878-3.611,7.433-6.149-.851.961-8.727.923-9.547C57,12.71,51.544,13.886,53.56,9.825Z"/></svg>