<svg xmlns="http://www.w3.org/2000/svg" width="35.278mm" height="35.278mm" viewBox="0 0 100.001 100.001"><defs><style>.a,.b{fill:none;stroke-linecap:round;stroke-linejoin:round;}.a{stroke:#c39052;}.b{stroke:#81949c;}</style></defs><title>love-my-watch</title><path class="a" d="M37.6,12.031h-.2a5.714,5.714,0,0,0-4.446,2.113,6.24,6.24,0,0,0-4.447-2.113h-.2a5.663,5.663,0,0,0-5.456,5.635,6.017,6.017,0,0,0,1.818,4.227l8.287,8.251,8.285-8.251a5.567,5.567,0,0,0,1.819-4.126,5.551,5.551,0,0,0-5.36-5.734Z"/><path class="b" d="M.5,78.719,7.488,70.1l.121-.153,3.948,6.113a15.719,15.719,0,0,1,.16-5.88L9.13,68l2.587,2.171A15.9,15.9,0,0,1,19.37,59.74a16.194,16.194,0,0,1,1.867-.913,15.67,15.67,0,0,1,5.769-1.177l-7.325-3.086.109-.139L31.366,39.846,33.542,45.5l2.405-7.826C45.314,36.308,52.5,28.572,52.5,19.2a18.183,18.183,0,0,0-.155-2.366l.348-.382a48.089,48.089,0,0,1,9.424-4.229c2.732-.939,9.467,2.808,9.467,2.808,5.654-1.808,21.128,3.107,19.507,10.015,0,0,5-1.428,7.17,2.332,3.415,5.9-1,8.064-3.909,11.043-1.159,1.19-2.561,2.563-4.06,4.006l.011-.01c-1,2.816-5.863,20.054-6.985,20.68-4.572,2.552-16.335,4.165-21.586,6.178-1.181.453-2.359.914-3.516,1.425-5.259,2.328-8.807,3.1-11.685,6.2L42.5,70.652a15.718,15.718,0,0,1-.16,5.88,15.9,15.9,0,0,1-7.654,10.436,16.344,16.344,0,0,1-1.866.913,15.628,15.628,0,0,1-5.769,1.176l7.082,2.985-.035.042L27.95,99.5"/><path class="b" d="M52.5,19.2C52.5,8.875,43.77.5,33,.5S13.5,8.875,13.5,19.2a18.414,18.414,0,0,0,7.508,14.751,19.851,19.851,0,0,0,9.555,3.792L33.542,45.5l2.405-7.826C45.314,36.308,52.5,28.572,52.5,19.2Z"/><path class="a" d="M28.423,74.152a1.587,1.587,0,0,1-2.162.6h0l-.014-.008a1.616,1.616,0,0,1-.614-2.187,1.589,1.589,0,0,1,2.163-.6h0l.014.008A1.616,1.616,0,0,1,28.423,74.152Z"/><path class="b" d="M16.145,79.58a12.375,12.375,0,0,0,16.866,4.673h0l.11-.063A12.6,12.6,0,0,0,37.91,67.126a12.377,12.377,0,0,0-16.866-4.672l-.111.064A12.6,12.6,0,0,0,16.145,79.58Z"/><path class="b" d="M13.355,81.178a15.549,15.549,0,0,0,21.19,5.869l.139-.079A15.829,15.829,0,0,0,40.7,65.53a15.548,15.548,0,0,0-21.188-5.871l-.142.081A15.828,15.828,0,0,0,13.355,81.178Z"/><path class="b" d="M21.237,58.827,17.4,55.605l1.241-1.48,8.367,3.525A15.66,15.66,0,0,0,21.237,58.827Zm-9.52,11.348a15.719,15.719,0,0,0-.16,5.88L6.634,68.432l1.242-1.48Zm34.462,9.581-3.841-3.224a15.718,15.718,0,0,0,.16-5.88l4.922,7.623ZM36.657,91.1l-1.242,1.48-8.366-3.526a15.628,15.628,0,0,0,5.769-1.176Z"/><path class="b" d="M21.237,58.827a16.194,16.194,0,0,0-1.867.913,15.9,15.9,0,0,0-7.653,10.435L4.273,63.928l9.521-11.347Zm21.1,17.7,7.444,6.247-9.52,11.352-7.443-6.245a16.344,16.344,0,0,0,1.866-.913,15.9,15.9,0,0,0,7.654-10.436Z"/><path class="a" d="M26.287,64.325l.61,7.433h0M25.44,73.565l-4.032.538"/><path class="b" d="M94.352,38.426c-5.552,5.7-16.65,15.6-17.4,17.169"/></svg>