<svg id="Ebene_1" xmlns="http://www.w3.org/2000/svg" width="100" height="100" viewBox="0 0 100 100"><defs><style>.cls-1,.cls-2{fill:none;stroke-linecap:square;stroke-linejoin:round;}.cls-1{stroke:#81949c;}.cls-2{stroke:#c39052;}</style></defs><g id="safe"><polygon id="Rectangle" class="cls-1" points="50.5 8.5 97.5 8.5 97.5 90.5 50.5 90.5 50.5 8.5"/><path id="Combined-Shape" class="cls-1" d="M27,8.5l-16.5,7v68l15.4,7H2.5V8.5Zm16.5,0"/><polygon class="cls-1" points="43.5 1.5 10.5 15.5 10.5 83.5 43.5 98.5 43.5 1.5"/><rect class="cls-1" x="6.5" y="31.5" width="4" height="7"/><rect class="cls-1" x="6.5" y="66" width="4" height="7"/><polygon class="cls-1" points="75.5 96.5 91.5 96.5 91.5 90.5 75.5 90.5 75.5 96.5"/><polygon class="cls-1" points="8.5 96.5 24.5 96.5 24.5 90.5 8.5 90.5 8.5 96.5"/><polygon class="cls-1" points="50.5 15.5 90.5 15.5 90.5 83.5 50.5 83.5 50.5 15.5"/></g><g id="money"><polygon class="cls-2" points="50.5 44.5 85.5 44.5 85.5 73.5 50.5 73.5 50.5 44.5"/><polygon class="cls-2" points="50.5 44.5 80.5 44.5 78.5 33.5 50.5 38.5 50.5 44.5"/><path class="cls-2" d="M81.5,65.5a4,4,0,0,0-4,4h-27v-21h27a4,4,0,0,0,4,4Z"/><circle id="Oval" class="cls-2" cx="58.5" cy="59" r="5.5"/></g><polygon class="cls-1" points="43.5 1.5 50.5 4.5 50.5 95.5 43.5 98.5 43.5 1.5"/><path class="cls-1" d="M32.5,28.5h5v2H34v42h3.5v2h-5a2,2,0,0,1-2-2v-42A2,2,0,0,1,32.5,28.5Z"/></svg>